<?xml version="1.0" encoding="UTF-8"?>
<svg id="Capa_2" data-name="Capa 2" xmlns="http://www.w3.org/2000/svg" viewBox="0 0 257.15 256.95">
  <defs>
    <style>
      .cls-1 {
        fill: #fff;
      }
    </style>
  </defs>
  <g id="Capa_1-2" data-name="Capa 1">
    <g>
      <path class="cls-1" d="m128.86.01c69.57-.9,128.45,58.14,128.29,128.64-.16,70.11-58.8,128.7-129.35,128.29C57.97,256.54-.41,197.92,0,127.59.41,58.04,58.69-1.07,128.86.01Zm112.31,128.23c-1.33-63.26-50.05-112.19-112.6-112.18-62.6,0-112.25,49.09-112.32,112.21-.07,63.3,49.84,112.67,112.6,112.43,63.67-.24,111.25-50.27,112.32-112.46Z"/>
      <path class="cls-1" d="m131.34,196.6c-38.67-.17-69.12-29.14-70.91-64.51-.16-3.21-.11-6.46,2.18-8.97,2.3-2.52,5.22-3.41,8.62-2.2,4.1,1.46,5.45,4.76,5.51,8.63.13,7.99,2.14,15.44,5.76,22.52,10.73,21.01,34.16,31.98,57.58,26.92,22.39-4.84,39.2-24.93,40.24-48.16.15-3.41.52-6.73,3.58-8.89,2.66-1.88,5.56-2.12,8.49-.55,3.36,1.8,4.43,4.92,4.33,8.4-.26,9.08-1.94,17.95-5.9,26.12-12.64,26.09-33.74,39.41-59.47,40.69Z"/>
      <path class="cls-1" d="m106.69,82.35c.06,4.72-2.74,8.29-7.02,8.96-4.2.65-7.79-2.02-9.03-6.77-.29-1.12-.26-2.37-.72-3.4-1.24-2.79-3.3-4.54-6.57-4.44-3.04.09-4.93,1.83-6.09,4.42-.46,1.03-.44,2.28-.73,3.4-1.25,4.78-4.79,7.44-9.01,6.81-4.29-.65-7.1-4.21-7.06-8.93.12-11.5,10.92-21.97,22.85-22.17,12.05-.2,23.22,10.38,23.38,22.13Z"/>
      <path class="cls-1" d="m173.62,60.21c11.73.03,22.17,9.73,23.04,21.44.37,4.97-2.34,8.8-6.79,9.61-4.36.79-8.24-1.93-9.23-7.04-.81-4.19-2.32-7.5-7.09-7.48-4.77.02-6.22,3.38-7.03,7.55-1,5.09-4.92,7.78-9.28,6.95-4.45-.85-7.12-4.69-6.72-9.67.94-11.71,11.41-21.39,23.11-21.37Z"/>
    </g>
  </g>
</svg>