<svg xmlns="http://www.w3.org/2000/svg" height="24" viewBox="0 -960 960 960" width="24"><path d="M160.772-136.924v-539.999h209.229v-105.386L480-890.001l109.999 107.692v265.386h209.229v379.999H160.772Zm59.999-59.999h100.001v-100.001H220.771v100.001Zm0-160h100.001v-100.001H220.771v100.001Zm0-160h100.001v-100.001H220.771v100.001Zm209.228 320h100.002v-100.001H429.999v100.001Zm0-160h100.002v-100.001H429.999v100.001Zm0-160h100.002v-100.001H429.999v100.001Zm0-160h100.002v-100.001H429.999v100.001Zm209.229 480h100.001v-100.001H639.228v100.001Zm0-160h100.001v-100.001H639.228v100.001Z"/></svg>