<svg width="85" height="66" viewBox="0 0 85 66" fill="none" xmlns="http://www.w3.org/2000/svg">
<path d="M45.1838 4.84705C46.5131 4.84705 47.5907 3.762 47.5907 2.42353C47.5907 1.08505 46.5131 0 45.1838 0C43.8545 0 42.7769 1.08505 42.7769 2.42353C42.7769 3.762 43.8545 4.84705 45.1838 4.84705Z" fill="#E8E8E8"/>
<path d="M53.0008 5.25703C54.2751 5.25703 55.3081 4.2169 55.3081 2.93384C55.3081 1.65077 54.2751 0.610641 53.0008 0.610641C51.7265 0.610641 50.6935 1.65077 50.6935 2.93384C50.6935 4.2169 51.7265 5.25703 53.0008 5.25703Z" fill="#E8E8E8"/>
<path d="M36.3206 5.82961C37.7116 5.82961 38.8392 4.69422 38.8392 3.29364C38.8392 1.89307 37.7116 0.757675 36.3206 0.757675C34.9296 0.757675 33.802 1.89307 33.802 3.29364C33.802 4.69422 34.9296 5.82961 36.3206 5.82961Z" fill="#E8E8E8"/>
<path d="M28.3026 8.52992C29.6309 8.52992 30.7078 7.44564 30.7078 6.10812C30.7078 4.7706 29.6309 3.68633 28.3026 3.68633C26.9742 3.68633 25.8973 4.7706 25.8973 6.10812C25.8973 7.44564 26.9742 8.52992 28.3026 8.52992Z" fill="#E8E8E8"/>
<path d="M59.9588 8.04382C61.1533 8.04382 62.1217 7.06875 62.1217 5.86594C62.1217 4.66312 61.1533 3.68805 59.9588 3.68805C58.7642 3.68805 57.7958 4.66312 57.7958 5.86594C57.7958 7.06875 58.7642 8.04382 59.9588 8.04382Z" fill="#E8E8E8"/>
<path d="M66.8566 20.6804C68.2791 23.9083 69.1862 27.3265 69.8579 30.7862C70.784 35.5468 71.3492 40.3523 71.5536 45.2011C71.6052 46.3947 71.7564 48.9237 70.0057 48.9843C69.2876 49.0085 68.2413 48.8805 67.8702 48.2353C67.762 48.045 67.7104 47.7422 67.7173 47.3288C67.7534 45.0765 67.6228 43.2169 67.5043 41.1602C67.439 39.9994 67.2878 38.8543 67.1521 37.7004C66.5508 32.5074 65.3602 27.3732 63.3467 22.6144C62.9326 21.637 62.5272 20.8101 62.132 20.1355C56.7787 10.9967 45.5755 9.21493 36.2089 12.3096C32.2729 13.6105 28.7492 15.5946 25.6379 18.2655C23.066 20.4711 21.1367 23.552 19.7485 26.6467C16.7472 33.3326 15.3006 40.444 14.4948 47.936C14.4553 48.3027 14.3041 48.6245 14.0396 48.9047C12.7785 50.2367 10.7393 49.3181 10.4781 47.6229C10.4025 47.1351 10.4077 46.156 10.4901 44.6839C10.5434 43.7446 10.6637 42.6547 10.8492 41.4179C11.8697 34.6455 14.6065 27.951 18.0236 22.0487C20.6282 17.5528 24.2257 13.7679 28.6376 11.2268C32.7127 8.87934 37.0369 7.47989 41.6069 7.03013C43.0689 6.88482 44.7045 6.85541 46.5135 6.9419C55.4129 7.36226 63.223 12.4428 66.8549 20.6839L66.8566 20.6804Z" fill="#FED700"/>
<path d="M66.1865 12.3702C67.3821 12.3702 68.3513 11.3943 68.3513 10.1906C68.3513 8.9868 67.3821 8.01096 66.1865 8.01096C64.991 8.01096 64.0219 8.9868 64.0219 10.1906C64.0219 11.3943 64.991 12.3702 66.1865 12.3702Z" fill="#E8E8E8"/>
<path d="M20.9529 13.1642C22.1493 13.1642 23.1193 12.1876 23.1193 10.9829C23.1193 9.77814 22.1493 8.80151 20.9529 8.80151C19.7564 8.80151 18.7864 9.77814 18.7864 10.9829C18.7864 12.1876 19.7564 13.1642 20.9529 13.1642Z" fill="#E8E8E8"/>
<path d="M40.3442 16.8609C30.3109 18.5683 24.4834 25.8337 21.537 35.1403C20.1729 39.4476 19.3276 43.8553 19.0047 48.3633C18.972 48.8079 18.9119 49.1331 18.8208 49.3372C18.0443 51.0947 15.5549 50.7021 15.2353 48.8719C15.201 48.673 15.2061 48.1609 15.2491 47.3358C15.4673 43.1668 16.1631 39.0774 17.333 35.0694C20.3928 24.5899 27.0656 16.2036 37.9699 13.5033C40.9489 12.7663 44.0276 12.4619 47.2059 12.5934C47.7007 12.6141 48.4876 12.7352 49.5699 12.9584C64.0786 15.951 66.5457 37.0587 66.3223 48.7283C66.2983 49.979 65.4564 50.427 64.3054 50.4132C63.1749 50.4011 62.7334 49.4721 62.5599 48.4861C62.2489 46.7148 62.2661 44.9296 62.2094 43.1391C62.1681 41.8383 62.0341 40.5271 61.9448 39.2176C61.852 37.8925 61.5926 36.1263 61.1683 33.919C60.6803 31.3848 59.9708 28.9699 59.0396 26.6778C58.215 24.6487 57.0278 22.4812 55.5503 20.8811C51.5302 16.5253 45.9415 15.9078 40.3459 16.8609H40.3442Z" fill="#FE7E00"/>
<path d="M70.2892 19.1322C71.4847 19.1322 72.4539 18.1564 72.4539 16.9526C72.4539 15.7488 71.4847 14.773 70.2892 14.773C69.0937 14.773 68.1245 15.7488 68.1245 16.9526C68.1245 18.1564 69.0937 19.1322 70.2892 19.1322Z" fill="#E8E8E8"/>
<path d="M15.5738 19.9504C16.7702 19.9504 17.7402 18.9738 17.7402 17.7691C17.7402 16.5644 16.7702 15.5877 15.5738 15.5877C14.3773 15.5877 13.4073 16.5644 13.4073 17.7691C13.4073 18.9738 14.3773 19.9504 15.5738 19.9504Z" fill="#E8E8E8"/>
<path d="M24.4697 30.3641C27.2031 24.4619 32.1767 20.3552 38.4818 18.8156C45.5137 17.0996 52.9905 19.3294 56.7341 25.7835C58.55 28.9128 59.6873 32.4123 60.3677 35.9602C61.1597 40.0825 61.5136 44.2428 61.4328 48.4394C61.426 48.8286 61.4878 49.6659 61.3813 50.0101C60.8917 51.5947 58.4091 51.4891 57.8009 50.081C57.691 49.8285 57.6395 49.4029 57.6446 48.8044C57.715 40.5184 56.1121 24.7888 45.9346 22.2061C43.3559 21.5523 40.4627 21.791 37.9046 22.5106C26.8766 25.607 24.5092 39.1674 24.5814 48.8321C24.5917 50.2488 22.7981 50.4287 21.8978 49.8285C21.1745 49.3476 21.0526 48.6764 21.0371 47.7769C20.9357 41.9161 21.9597 35.7838 24.4714 30.3641H24.4697Z" fill="#DC3731"/>
<path d="M11.6773 27.112C12.8738 27.112 13.8437 26.1354 13.8437 24.9307C13.8437 23.7259 12.8738 22.7493 11.6773 22.7493C10.4808 22.7493 9.51086 23.7259 9.51086 24.9307C9.51086 26.1354 10.4808 27.112 11.6773 27.112Z" fill="#E8E8E8"/>
<path d="M73.8695 27.112C75.066 27.112 76.036 26.1354 76.036 24.9307C76.036 23.7259 75.066 22.7493 73.8695 22.7493C72.6731 22.7493 71.7031 23.7259 71.7031 24.9307C71.7031 26.1354 72.6731 27.112 73.8695 27.112Z" fill="#E8E8E8"/>
<path d="M40.8544 27.6673C33.8673 28.0167 30.8367 34.2338 29.7887 40.3402C29.3094 43.1391 29.1066 45.9571 29.1839 48.7975C29.2217 50.2246 27.8611 51.0878 26.6825 50.1952C26.2152 49.8423 25.9249 49.377 25.8115 48.7958C25.6551 48.0052 25.595 46.8514 25.6294 45.3378C25.808 37.2663 28.9898 25.9098 38.1004 23.7284C40.0933 23.251 42.155 23.2216 44.2887 23.6385C53.073 25.358 55.8476 34.4224 56.4953 42.1254C56.7255 44.869 56.8337 47.7752 56.4953 50.4097C56.2101 52.6274 52.8462 52.5167 52.384 50.4997C52.3342 50.2782 52.3274 49.8562 52.3669 49.2334C52.4854 47.3029 52.5026 45.3707 52.4184 43.4384C52.3737 42.3901 52.2363 41.3176 52.1074 40.2555C51.446 34.9137 49.338 28.7381 43.2579 27.7071C42.7666 27.6223 41.9643 27.6085 40.8544 27.6656V27.6673Z" fill="#01D1A0"/>
<path d="M35.7449 38.0516C34.386 41.3055 34.2159 44.7341 34.2262 48.346C34.2314 50.6433 31.3348 51.0394 30.6682 48.8926C30.5754 48.5934 30.5101 48.1799 30.4758 47.6541C30.3383 45.5903 30.5205 44.0127 30.7197 42.1583C30.8452 40.9941 31.1527 39.5999 31.6406 37.9738C32.8965 33.7893 35.769 29.5892 40.5777 29.4283C46.6492 29.2259 49.5166 34.412 50.4941 39.6379C51.0353 42.532 51.2346 45.4814 51.092 48.4878C51.0611 49.1262 51.0405 49.7991 50.7604 50.3336C49.9152 51.9389 47.589 51.6241 47.0169 49.9911C46.9069 49.6763 46.8691 49.1071 46.9018 48.2803C46.9997 45.81 46.9447 43.4298 46.5513 40.9855C46.2403 39.0411 45.5325 36.6228 44.1409 35.2562C42.9984 34.1352 41.77 33.9623 40.1998 34.1076C38.121 34.2979 36.5249 36.1938 35.7449 38.0551V38.0516Z" fill="#E8E8E8"/>
<path d="M8.83566 34.5919C10.0312 34.5919 11.0004 33.6161 11.0004 32.4123C11.0004 31.2085 10.0312 30.2327 8.83566 30.2327C7.64013 30.2327 6.67096 31.2085 6.67096 32.4123C6.67096 33.6161 7.64013 34.5919 8.83566 34.5919Z" fill="#E8E8E8"/>
<path d="M75.4862 34.5902C76.6818 34.5902 77.6509 33.6144 77.6509 32.4106C77.6509 31.2068 76.6818 30.231 75.4862 30.231C74.2907 30.231 73.3215 31.2068 73.3215 32.4106C73.3215 33.6144 74.2907 34.5902 75.4862 34.5902Z" fill="#E8E8E8"/>
<path d="M6.98711 41.4214C8.08871 41.4214 8.98173 40.5222 8.98173 39.413C8.98173 38.3038 8.08871 37.4046 6.98711 37.4046C5.88551 37.4046 4.99249 38.3038 4.99249 39.413C4.99249 40.5222 5.88551 41.4214 6.98711 41.4214Z" fill="#E8E8E8"/>
<path d="M76.4105 41.4231C77.5131 41.4231 78.4069 40.5232 78.4069 39.413C78.4069 38.3029 77.5131 37.4029 76.4105 37.4029C75.308 37.4029 74.4142 38.3029 74.4142 39.413C74.4142 40.5232 75.308 41.4231 76.4105 41.4231Z" fill="#E8E8E8"/>
<path d="M6.18652 48.9636C7.2179 48.9636 8.054 48.1217 8.054 47.0832C8.054 46.0447 7.2179 45.2029 6.18652 45.2029C5.15513 45.2029 4.31903 46.0447 4.31903 47.0832C4.31903 48.1217 5.15513 48.9636 6.18652 48.9636Z" fill="#E8E8E8"/>
<path d="M76.876 48.9636C77.9074 48.9636 78.7435 48.1217 78.7435 47.0832C78.7435 46.0447 77.9074 45.2029 76.876 45.2029C75.8446 45.2029 75.0085 46.0447 75.0085 47.0832C75.0085 48.1217 75.8446 48.9636 76.876 48.9636Z" fill="#E8E8E8"/>
<path d="M4.98558 58.0833C5.17628 58.1785 5.37213 58.2546 5.53019 58.3688C6.69844 59.206 6.73968 60.7854 6.34625 62.0343C5.61953 64.3368 3.47544 65.3297 1.15783 65.0408C0.644147 64.9751 0.482653 64.5755 0.376136 64.1413C0.16482 63.2798 0.0462767 62.4045 0.0205064 61.5171C-0.0499323 59.1922 0.0600208 56.8759 0.350366 54.5683C0.374418 54.3763 0.458601 54.1393 0.602915 53.8608C1.04273 53.0097 1.68183 53.0979 2.50476 53.2276C2.55115 53.2346 2.5941 53.2276 2.63705 53.2103C3.93243 52.6672 6.15383 52.7173 6.60567 54.3382C6.99394 55.7273 5.95111 57.0887 4.97012 57.9726C4.92201 58.0159 4.92717 58.0522 4.98558 58.0799V58.0833ZM2.59582 57.5903C3.39641 57.1752 4.73475 56.0767 4.49594 55.0249C4.3396 54.3244 3.66958 54.4368 3.19197 54.6807C3.15589 54.698 3.13012 54.7309 3.12153 54.7707L2.51851 57.5315C2.51335 57.5609 2.53053 57.5886 2.55974 57.5955C2.57176 57.5972 2.58379 57.5955 2.5941 57.5921L2.59582 57.5903ZM4.19529 62.1174C4.41176 61.479 4.56295 60.2958 4.063 59.7526C3.66786 59.3219 2.99268 59.3773 2.44978 59.4326C2.40855 59.4361 2.37763 59.4689 2.37419 59.5105C2.26596 60.7473 2.44635 62.0983 2.59066 63.349C2.59925 63.4217 2.66454 63.4718 2.73498 63.4632C2.74013 63.4632 2.74528 63.4632 2.75044 63.4597C3.47029 63.2798 3.95133 62.8318 4.19185 62.1191L4.19529 62.1174Z" fill="#E8E8E8"/>
<path d="M20.0509 58.8393C20.7329 59.1887 21.1848 59.6904 21.4098 60.3425C21.7998 61.4704 22.061 63.2556 21.3961 64.335C21.1195 64.7848 20.5044 64.8661 20.0509 64.7294C19.5028 64.5634 19.185 64.0271 19.1231 63.4718C19.0321 62.6761 19.6145 61.6486 19.2022 60.8771C18.8946 60.301 18.0837 60.3149 17.491 60.4135C17.4532 60.4204 17.4257 60.455 17.4275 60.493C17.4532 61.5223 17.546 62.5429 17.7075 63.5566C17.7556 63.8576 17.692 64.1672 17.5134 64.4838C17.2282 64.9907 16.8158 65.1273 16.2592 65.0564C15.6321 64.9768 15.4552 64.3731 15.3504 63.7659C14.8659 60.9809 15.127 58.1543 15.316 55.3398C15.395 54.1618 15.7301 52.9024 17.2591 53.1965C17.4687 53.238 17.6371 53.2813 17.8449 53.193C19.2898 52.5893 21.36 52.8592 21.7105 54.7119C21.9768 56.1182 21.0697 57.7426 20.0337 58.7355C19.989 58.7787 19.9942 58.8133 20.0492 58.841L20.0509 58.8393ZM19.4083 56.414C19.8636 55.4868 19.5578 54.2361 18.2246 54.954C18.1851 54.9748 18.1593 55.0077 18.149 55.0509C17.8552 56.1303 17.6388 57.2236 17.4996 58.3324C17.4893 58.4189 17.5202 58.4414 17.5958 58.3982C18.3792 57.938 18.984 57.2772 19.4083 56.4158V56.414Z" fill="#E8E8E8"/>
<path d="M27.6549 58.8393C28.3747 59.2146 28.8524 59.7959 29.0894 60.583C29.3695 61.5188 29.7904 64.2762 28.5208 64.7087C27.6171 65.0148 26.8337 64.4336 26.7151 63.5254C26.5966 62.6328 27.4762 61.095 26.4231 60.5155C26.076 60.3252 25.5486 60.346 25.1535 60.3927C25.0435 60.4048 24.992 60.4671 25.0023 60.5795C25.1036 61.6658 25.1913 62.6916 25.2617 63.6586C25.3339 64.6412 24.8666 65.1134 23.8615 65.0754C22.3857 65.0166 22.7036 59.5468 22.7139 58.5746C22.7276 57.2167 22.8616 55.9314 23.0111 54.6063C23.1245 53.6047 23.7808 52.9958 24.8133 53.1861C24.9542 53.212 25.0968 53.2328 25.2394 53.2518C25.284 53.257 25.327 53.2518 25.3699 53.2328C26.777 52.591 28.7802 52.8298 29.2441 54.4714C29.677 56.0092 28.7063 57.6612 27.6394 58.7355C27.5965 58.7787 27.6034 58.8133 27.6566 58.841L27.6549 58.8393ZM25.2033 58.4068C26.1173 57.8169 27.6858 56.2289 27.0364 55.0007C26.8131 54.5769 26.1362 54.7689 25.8149 54.9678C25.7823 54.9886 25.7599 55.018 25.7496 55.0561C25.4387 56.1338 25.2239 57.2288 25.1054 58.3445C25.1019 58.3808 25.126 58.412 25.1621 58.4172C25.1775 58.4172 25.1913 58.4154 25.205 58.4068H25.2033Z" fill="#E8E8E8"/>
<path d="M34.3946 59.7284C33.6078 59.5952 32.9034 59.2302 32.278 58.6369C30.9586 57.3845 30.3848 55.7861 30.5514 53.8417C30.6219 53.0252 31.1081 52.8246 31.8245 52.9076C32.5357 52.9889 32.711 53.43 32.6904 54.0839C32.6629 54.9782 32.8106 56.1182 33.3741 56.8413C33.838 57.4364 34.5561 57.2668 34.606 56.4728C34.6815 55.2965 34.6094 53.0131 36.3858 53.1411C38.377 53.2847 37.4235 55.3242 37.183 56.44C36.8377 58.0505 36.7191 59.6731 36.8256 61.313C36.872 62.0049 37.0335 62.9373 37.0765 63.6638C37.1108 64.2278 36.7792 64.9128 36.1883 65.0443C35.008 65.3038 34.776 64.3229 34.6592 63.4269C34.5046 62.2298 34.4393 61.0258 34.4616 59.8166C34.4616 59.7682 34.4393 59.7405 34.3912 59.7319L34.3946 59.7284Z" fill="#E8E8E8"/>
<path d="M74.6117 53.3487C76.7335 54.2863 77.4172 56.9209 77.1458 59.0659C76.8417 61.4825 75.3384 63.4995 73.1394 64.5513C72.8147 64.707 72.4264 64.7554 72.0708 64.8229C71.4609 64.9422 70.6156 65.4681 70.2995 64.5201C70.0727 63.8386 69.9456 63.138 69.9198 62.4184C69.8425 60.2854 69.8683 58.1525 69.9954 56.0231C70.0418 55.2343 70.1363 54.5787 70.2789 54.0528C70.4627 53.3729 70.9266 53.2034 71.5949 53.1152C72.6858 52.9699 73.5087 52.8609 74.6134 53.3487H74.6117ZM74.5172 59.9723C75.0859 58.5279 74.89 56.7254 73.3936 55.9608C73.0861 55.8034 72.7717 55.9072 72.7202 56.2653C72.49 57.9121 72.3336 59.6627 72.2512 61.5188C72.2426 61.7074 72.2769 61.8821 72.3577 62.0447C72.4126 62.1589 72.5449 62.2108 72.6618 62.1658C73.4538 61.8665 74.22 60.7352 74.5172 59.9723Z" fill="#E8E8E8"/>
<path d="M51.0817 64.3939C50.6951 63.0861 50.6522 61.9928 50.635 60.455C50.6178 58.7338 50.714 56.9001 50.9236 54.9506C51.0198 54.0649 51.3102 53.1844 52.3307 53.1325C54.5504 53.0183 53.6209 55.2152 53.3701 56.3621C52.8409 58.7943 52.9372 61.0414 53.2086 63.4217C53.3203 64.4008 52.8495 65.2449 51.7637 65.0633C51.4253 65.0062 51.1985 64.7848 51.0817 64.3956V64.3939Z" fill="#E8E8E8"/>
<path d="M57.4916 58.2269C58.0981 58.2408 58.6324 58.0712 59.1994 57.9294C60.0154 57.727 60.2508 59.0106 60.103 59.5399C59.8951 60.2889 58.0242 60.4688 57.4298 60.4463C57.3714 60.4446 57.3233 60.4896 57.3216 60.5467C57.3216 60.5519 57.3216 60.557 57.3216 60.5605L57.5019 62.6398C57.5105 62.7332 57.5879 62.8041 57.6806 62.8024C58.5328 62.7903 59.3248 62.6086 60.0584 62.2575C61.1459 61.7368 61.5221 62.9027 61.3795 63.6967C61.2266 64.5461 58.6221 64.963 57.9452 65.0045C57.5346 65.0304 57.0106 65.0512 56.3732 65.0685C55.93 65.0789 55.6327 64.8886 55.4833 64.4925C55.3218 64.0686 55.2135 63.631 55.1586 63.1778C54.8356 60.5242 55.0761 57.8256 55.2651 55.153C55.3166 54.4264 55.5554 53.4543 56.2959 53.2069C56.4437 53.1567 56.7288 53.1377 57.148 53.1498C58.3781 53.1861 60.0858 52.9941 61.1201 53.7224C61.6149 54.0701 61.4414 55.4695 60.8452 55.665C60.6975 55.7134 60.469 55.691 60.158 55.5958C59.4622 55.3848 58.7716 55.2862 58.0448 55.3709C57.9847 55.3779 57.9486 55.4107 57.9366 55.4713L57.4264 58.1387C57.416 58.1923 57.4367 58.22 57.4916 58.2217V58.2269Z" fill="#E8E8E8"/>
<path d="M65.1574 62.3146C65.2159 62.7851 65.5681 62.7868 65.9495 62.7176C66.415 62.6311 66.8617 62.4858 67.2912 62.2817C67.5695 62.1502 67.8101 62.0897 68.0111 62.1035C68.6227 62.1416 68.7945 63.3611 68.7 63.7348C68.5213 64.4561 66.8274 64.719 66.2518 64.8505C65.4598 65.0322 64.7176 65.0581 63.9256 65.0564C62.8673 65.0529 62.723 64.0531 62.6887 63.2158C62.5718 60.4428 62.6646 57.6785 62.9704 54.9229C63.0769 53.9663 63.4377 53.1342 64.508 53.1394C65.7433 53.1446 66.0165 53.9438 65.7605 54.9886C65.6471 55.4557 65.5371 55.921 65.434 56.3846C64.9942 58.3428 64.9015 60.32 65.1574 62.3128V62.3146Z" fill="#E8E8E8"/>
<path d="M10.2943 58.239C10.7564 58.2234 11.2581 58.13 11.8027 57.9571C12.7648 57.6526 13.0637 58.9431 12.8472 59.5935C12.5964 60.3477 10.7753 60.3996 10.1826 60.4792C10.1139 60.4878 10.0829 60.5259 10.0898 60.5968L10.2788 62.6761C10.2857 62.7522 10.3286 62.7903 10.4042 62.7937C11.2185 62.8197 12.002 62.6501 12.7579 62.2834C13.0465 62.1433 13.2888 62.0845 13.4863 62.1052C14.0584 62.1658 14.2251 63.3161 14.1478 63.7019C14.0412 64.2364 12.9383 64.591 12.4727 64.6966C11.3113 64.9578 10.6568 65.0512 9.48335 65.0616C8.81504 65.0685 8.47487 65.1065 8.22576 64.3904C7.73956 63.003 7.72925 61.076 7.80313 59.6194C7.83233 59.0313 7.78767 58.4224 7.8289 57.8688C7.89934 56.9434 7.96462 56.0162 8.02819 55.0907C8.08488 54.2673 8.49033 53.0806 9.53661 53.1394C10.8818 53.2155 12.8008 52.9526 13.8901 53.7154C14.39 54.0666 14.2199 55.5266 13.5722 55.6909C13.4365 55.7255 13.2132 55.6944 12.9039 55.5941C12.2339 55.3796 11.5467 55.3052 10.8389 55.3692C10.7908 55.3726 10.7616 55.3986 10.7495 55.4453C10.5107 56.3379 10.3372 57.2444 10.2273 58.1629C10.2204 58.2165 10.2444 58.2425 10.2977 58.2407L10.2943 58.239Z" fill="#E8E8E8"/>
<path d="M45.9706 60.5553C45.9878 61.5569 46.0754 62.5515 46.2369 63.5393C46.2558 63.6586 46.2318 63.8489 46.1648 64.1119C45.9586 64.9111 45.4415 65.2155 44.6134 65.0252C43.4434 64.7588 43.6341 60.09 43.6307 59.1593C43.6272 57.7564 43.787 56.3344 43.8935 54.9142C43.9348 54.3572 44.2148 53.5252 44.7955 53.2588C44.9553 53.1844 45.2181 53.148 45.5806 53.148C46.8262 53.1446 48.5013 53.0425 49.6094 53.6324C50.2519 53.9732 50.0354 55.1408 49.6747 55.5629C49.4943 55.774 49.1352 55.7186 48.8586 55.6269C48.1439 55.3865 47.4086 55.2983 46.6527 55.364C46.5977 55.3692 46.565 55.3986 46.5547 55.4522L46.0256 58.1404C46.0136 58.2044 46.0393 58.2356 46.1046 58.2338C46.4757 58.2269 46.8434 58.1767 47.2076 58.0833C47.6319 57.9743 47.8931 57.9242 47.991 57.9346C48.6524 58.0072 48.862 58.9361 48.7366 59.4689C48.5253 60.3598 46.7059 60.3771 46.0445 60.4653C45.9947 60.4723 45.9689 60.5017 45.9706 60.5518V60.5553Z" fill="#E8E8E8"/>
<path d="M81.001 55.755C80.5509 55.9729 80.4839 56.8655 80.5406 57.3032C80.6041 57.7997 80.855 58.1491 81.2913 58.3498C81.817 58.5919 82.3428 58.8393 82.8633 59.0919C84.1862 59.7319 84.6982 60.9739 84.4267 62.3993C84.1072 64.0773 82.6864 65.2571 80.9941 65.3799C80.3808 65.4249 78.7968 65.366 78.4154 64.8903C77.8209 64.1482 78.7006 63.2902 79.4187 63.2349C79.5338 63.2262 79.752 63.2643 80.0767 63.349C81.3686 63.6915 82.3496 63.2072 82.2311 61.7576C82.1606 60.9238 81.1316 60.6297 80.3722 60.3131C78.4325 59.5036 77.7368 57.6578 78.582 55.71C79.484 53.6342 81.7741 53.3401 83.7429 53.8781C84.4456 54.0701 84.7858 54.6409 84.3322 55.2672C83.4732 56.459 82.1108 55.2204 80.9993 55.7532L81.001 55.755Z" fill="#E8E8E8"/>
</svg>
