<?xml version="1.0" encoding="UTF-8"?>
<svg id="Capa_2" data-name="Capa 2" xmlns="http://www.w3.org/2000/svg" viewBox="0 0 816.32 243.29">
  <defs>
    <style>
      .cls-1 {
        fill: #5f00c0;
      }
    </style>
  </defs>
  <g id="Capa_1-2" data-name="Capa 1">
    <g>
      <polygon class="cls-1" points="236.24 140.9 205.51 171.75 205.41 171.65 133.59 243.29 102.87 212.45 174.69 140.81 137.63 103.61 168.36 72.77 205.51 110.06 236.24 140.9"/>
      <polygon class="cls-1" points="61.41 103.3 98.61 140.63 67.88 171.48 30.73 134.19 0 103.34 102.64 0 133.37 30.85 61.41 103.3"/>
    </g>
    <g>
      <path class="cls-1" d="m317.22,120.73c-6.36,0-12.29-1.02-17.79-3.06-5.42-2.12-10.13-5.1-14.14-8.95-4.01-3.85-7.15-8.37-9.43-13.55-2.2-5.18-3.3-10.88-3.3-17.08s1.1-11.9,3.3-17.08c2.28-5.18,5.42-9.7,9.43-13.55,4.08-3.85,8.84-6.79,14.26-8.84,5.42-2.12,11.35-3.18,17.79-3.18,7.15,0,13.59,1.26,19.32,3.77,5.81,2.43,10.68,6.05,14.61,10.84l-12.25,11.31c-2.83-3.22-5.97-5.62-9.43-7.19-3.46-1.65-7.23-2.47-11.31-2.47-3.85,0-7.38.63-10.6,1.89-3.22,1.26-6.01,3.06-8.37,5.42-2.36,2.36-4.2,5.14-5.54,8.37-1.26,3.22-1.89,6.79-1.89,10.72s.63,7.5,1.89,10.72c1.34,3.22,3.18,6.01,5.54,8.36,2.36,2.36,5.14,4.16,8.37,5.42,3.22,1.26,6.75,1.89,10.6,1.89,4.08,0,7.85-.79,11.31-2.36,3.46-1.65,6.6-4.12,9.43-7.42l12.25,11.31c-3.93,4.79-8.8,8.44-14.61,10.96-5.73,2.51-12.21,3.77-19.44,3.77Zm103.49-83.89h19.09v82.47h-19.09V36.84Zm-37.47,82.47h-19.09V36.84h19.09v82.47Zm38.88-33.81h-40.29v-16.14h40.29v16.14Zm26.35,33.81l36.76-82.47h18.85l36.88,82.47h-20.03l-30.16-72.81h7.54l-30.28,72.81h-19.56Zm18.38-17.67l5.07-14.49h42.41l5.18,14.49h-52.66Zm120.98,19.09c-6.36,0-12.29-1.02-17.79-3.06-5.42-2.12-10.13-5.1-14.14-8.95-4.01-3.85-7.15-8.37-9.43-13.55-2.2-5.18-3.3-10.88-3.3-17.08s1.1-11.9,3.3-17.08c2.28-5.18,5.42-9.7,9.43-13.55,4.08-3.85,8.84-6.79,14.26-8.84,5.42-2.12,11.35-3.18,17.79-3.18,7.15,0,13.59,1.26,19.32,3.77,5.81,2.43,10.68,6.05,14.61,10.84l-12.25,11.31c-2.83-3.22-5.97-5.62-9.43-7.19-3.46-1.65-7.23-2.47-11.31-2.47-3.85,0-7.38.63-10.6,1.89-3.22,1.26-6.01,3.06-8.36,5.42-2.36,2.36-4.2,5.14-5.54,8.37-1.26,3.22-1.89,6.79-1.89,10.72s.63,7.5,1.89,10.72c1.33,3.22,3.18,6.01,5.54,8.36,2.36,2.36,5.15,4.16,8.36,5.42,3.22,1.26,6.76,1.89,10.6,1.89,4.08,0,7.85-.79,11.31-2.36,3.46-1.65,6.6-4.12,9.43-7.42l12.25,11.31c-3.93,4.79-8.8,8.44-14.61,10.96-5.73,2.51-12.21,3.77-19.44,3.77Zm34.49-1.41l36.76-82.47h18.85l36.88,82.47h-20.03l-30.16-72.81h7.54l-30.28,72.81h-19.56Zm18.38-17.67l5.07-14.49h42.41l5.18,14.49h-52.67Zm82.67,17.67V36.84h15.79l35.11,58.2h-8.37l34.52-58.2h15.67l.23,82.47h-17.91l-.12-55.02h3.3l-27.57,46.3h-8.6l-28.16-46.3h4.01v55.02h-17.91Z"/>
      <path class="cls-1" d="m353.29,207.31v-58.28h-22.54v-5.87h51.87v5.87h-22.54v58.28h-6.78Zm40.16,0v-64.15h24.01c5.44,0,10.11.89,14.02,2.66,3.91,1.71,6.9,4.21,8.98,7.51,2.14,3.24,3.21,7.18,3.21,11.82s-1.07,8.43-3.21,11.73c-2.08,3.24-5.07,5.74-8.98,7.51-3.91,1.71-8.58,2.57-14.02,2.57h-20.25l3.02-3.11v23.46h-6.78Zm43.8,0l-16.49-23.28h7.33l16.59,23.28h-7.42Zm-37.02-22.91l-3.02-3.21h20.07c6.42,0,11.27-1.4,14.57-4.21,3.36-2.81,5.04-6.75,5.04-11.82s-1.68-9.1-5.04-11.91c-3.3-2.81-8.16-4.21-14.57-4.21h-20.07l3.02-3.21v38.58Zm49.18,22.91l29.32-64.15h6.69l29.32,64.15h-7.15l-26.94-60.21h2.75l-26.94,60.21h-7.06Zm11.55-17.14l2.02-5.5h37.3l2.02,5.5h-41.33Zm64.4,17.14v-64.15h26.12c6.84,0,12.83,1.38,17.96,4.12,5.19,2.69,9.23,6.44,12.1,11.27,2.87,4.83,4.31,10.38,4.31,16.68s-1.44,11.85-4.31,16.68c-2.87,4.83-6.9,8.61-12.1,11.36-5.13,2.69-11.12,4.03-17.96,4.03h-26.12Zm6.78-5.86h18.97c5.68,0,10.6-1.1,14.75-3.3,4.22-2.26,7.48-5.35,9.8-9.26,2.32-3.97,3.48-8.52,3.48-13.65s-1.16-9.74-3.48-13.65c-2.32-3.91-5.59-6.96-9.8-9.16-4.15-2.26-9.07-3.39-14.75-3.39h-18.97v52.42Zm68.93,5.86v-64.15h6.78v64.15h-6.78Zm27.65,0v-64.15h5.59l44.26,55.71h-2.93v-55.71h6.69v64.15h-5.59l-44.17-55.72h2.93v55.72h-6.78Zm102.68.55c-4.89,0-9.41-.79-13.56-2.38-4.09-1.65-7.67-3.94-10.72-6.87-2.99-2.93-5.35-6.38-7.06-10.36-1.65-3.97-2.47-8.31-2.47-13.01s.83-9.04,2.47-13.01c1.71-3.97,4.09-7.42,7.15-10.35,3.05-2.93,6.63-5.19,10.72-6.78,4.15-1.65,8.67-2.47,13.56-2.47s9.35.76,13.38,2.29c4.09,1.53,7.58,3.85,10.45,6.96l-4.21,4.31c-2.69-2.69-5.65-4.61-8.89-5.77-3.24-1.16-6.72-1.74-10.45-1.74-3.97,0-7.64.67-11,2.02-3.3,1.28-6.2,3.15-8.71,5.59-2.44,2.38-4.37,5.19-5.77,8.43-1.34,3.18-2.02,6.69-2.02,10.54s.67,7.3,2.02,10.54c1.41,3.24,3.33,6.08,5.77,8.52,2.5,2.38,5.41,4.25,8.71,5.59,3.36,1.28,6.99,1.92,10.9,1.92,3.66,0,7.12-.55,10.35-1.65,3.3-1.1,6.32-2.96,9.07-5.59l3.85,5.13c-3.05,2.69-6.63,4.73-10.72,6.14-4.09,1.34-8.37,2.02-12.83,2.02Zm17.04-8.98v-23.64h6.51v24.47l-6.51-.83Z"/>
    </g>
  </g>
</svg>