<?xml version="1.0" encoding="UTF-8"?>
<svg id="Capa_2" data-name="Capa 2" xmlns="http://www.w3.org/2000/svg" viewBox="0 0 840.25 326.94">
  <defs>
    <style>
      .cls-1 {
        fill: #7e35e4;
      }
    </style>
  </defs>
  <g id="Capa_1-2" data-name="Capa 1">
    <g>
      <g>
        <path class="cls-1" d="m269.23,52.7v-21.8h12.49c4.87,0,8.05-3.17,8.05-8.47V0h25.82v30.69h30.69v22.01h-30.69v51.22c0,9.52,5.08,15.24,15.24,15.24h14.82v22.86h-20.53c-23.49,0-37.04-13.33-37.04-37.04v-52.28h-18.84Z"/>
        <path class="cls-1" d="m418.65,27.94c35.77,0,55.24,26.46,55.24,57.78v8.68h-84.67c.84,16.93,12.7,28.36,30.27,28.36,13.34,0,23.71-6.14,27.73-15.45h25.61c-5.72,22.86-25.61,37.47-54.19,37.47-16.3,0-29.85-5.5-40.43-16.3-10.37-11.01-15.66-24.76-15.66-41.49,0-34.71,23.71-59.05,56.09-59.05Zm29,46.99c-1.48-15.03-12.91-24.98-29-24.98-15.24,0-27.31,10.79-29,24.98h58Z"/>
        <path class="cls-1" d="m579.71,40c10.16,8.04,16.3,18.62,18.42,31.75h-28.15c-3.39-11.22-13.97-18.84-26.67-18.84-18.42,0-30.48,14.18-30.48,33.44s12.7,33.44,30.69,33.44c12.7,0,23.07-7.2,26.25-17.99h28.15c-2.12,12.91-8.25,23.28-18.42,31.11-9.95,7.83-22.22,11.85-36.41,11.85-34.71,0-58.21-26.04-58.21-58.42s23.5-58.42,58.21-58.42c14.18,0,26.46,4.02,36.62,12.07Z"/>
        <path class="cls-1" d="m609.75,142.03V30.69h26.25v13.55h1.48c5.08-9.1,16.3-16.3,31.33-16.3,12.28,0,22.01,3.81,29.21,11.64,7.41,7.62,11,17.57,11,29.63v72.81h-27.52v-65.62c0-13.55-8.68-22.65-21.38-22.65-13.34,0-22.86,10.37-22.86,24.55v63.71h-27.52Z"/>
        <path class="cls-1" d="m780.97,27.94c34.29-.42,59.9,26.04,59.26,58.42,0,32.6-24.76,58.42-59.26,58.42-17.36,0-31.54-5.5-42.76-16.51-11.01-11.22-16.51-25.19-16.51-41.91,0-33.02,24.13-58.42,59.27-58.42Zm-22.65,82.55c5.93,6.14,13.33,9.31,22.44,9.31s16.72-3.18,22.65-9.31c5.93-6.35,8.89-14.39,8.89-24.13s-2.96-17.78-8.89-23.92c-5.93-6.35-13.34-9.52-22.44-9.52s-16.72,3.17-22.65,9.52c-5.71,6.14-8.68,14.18-8.68,23.92s2.96,17.78,8.68,24.13Z"/>
      </g>
      <g>
        <path class="cls-1" d="m294.63,244.81c.85,9.32,8.68,14.61,21.17,14.61s19.89-5.5,19.89-13.33c0-23.71-63.92-1.27-63.92-47.84,0-9.74,4.02-17.78,11.85-24.34,7.83-6.56,18.63-9.74,31.96-9.74,24.76,0,42.12,12.7,43.81,34.5h-24.34c-1.06-8.47-7.83-13.34-19.68-13.34-11.01,0-18.42,4.66-18.42,12.06,0,21.17,65.41-1.27,65.41,47.2,0,21.38-17.57,36.41-46.99,36.41s-45.08-13.55-46.14-36.2h25.4Z"/>
        <path class="cls-1" d="m380.13,166.92h27.52v65.83c0,13.55,8.89,22.86,21.59,22.86,13.34,0,22.86-10.58,22.86-24.76v-63.92h27.52v111.34h-26.25v-13.55h-1.69c-4.87,9.1-16.51,16.3-31.11,16.3-12.28,0-22.01-3.81-29.42-11.64-7.41-7.83-11-17.57-11-29.63v-72.81Z"/>
        <path class="cls-1" d="m500.34,326.94v-160.02h27.09v14.18h1.48c3.17-4.87,12.91-16.93,33.44-16.93,15.66,0,28.36,5.29,37.89,16.09,9.74,10.58,14.61,24.55,14.61,41.91s-4.87,31.54-14.39,42.54c-9.52,10.79-22.01,16.3-37.25,16.3-19.47,0-30.48-10.79-33.87-17.15h-1.48v63.08h-27.52Zm56.73-70.91c17.78,0,29.84-13.76,29.84-33.44s-12.06-33.44-30.06-33.44-29.63,13.97-29.63,33.44,12.28,33.44,29.84,33.44Z"/>
        <path class="cls-1" d="m679.81,164.17c35.77,0,55.25,26.46,55.25,57.79v8.68h-84.67c.85,16.93,12.7,28.36,30.27,28.36,13.33,0,23.71-6.14,27.73-15.45h25.61c-5.71,22.86-25.61,37.47-54.19,37.47-16.3,0-29.84-5.5-40.43-16.3-10.37-11.01-15.66-24.76-15.66-41.49,0-34.71,23.71-59.05,56.09-59.05Zm29,46.99c-1.48-15.03-12.91-24.98-29-24.98-15.24,0-27.3,10.79-29,24.98h58Z"/>
        <path class="cls-1" d="m750.92,278.25v-111.34h26.03v18.21h1.69c4.23-9.95,14.82-18.63,29.21-18.63h10.16v26.25h-11.43c-17.57,0-28.15,12.7-28.15,32.81v52.7h-27.52Z"/>
      </g>
      <path class="cls-1" d="m134.6,33.34c0-2.98-2.42-5.4-5.4-5.4H5.4c-2.98,0-5.4,2.42-5.4,5.4v123.8c0,2.98,2.42,5.4,5.4,5.4h33.58c2.98,0,5.4-2.42,5.4-5.4v-79.42c0-2.98,2.42-5.4,5.4-5.4h79.42c2.98,0,5.4-2.42,5.4-5.4v-33.58Z"/>
      <path class="cls-1" d="m44.41,275.58c0,2.98,2.42,5.4,5.4,5.4h123.8c2.98,0,5.4-2.42,5.4-5.4v-123.8c0-2.98-2.42-5.4-5.4-5.4h-33.58c-2.98,0-5.4,2.42-5.4,5.4v79.42c0,2.98-2.42,5.4-5.4,5.4H49.81c-2.98,0-5.4,2.42-5.4,5.4v33.58Z"/>
    </g>
  </g>
</svg>