<?xml version="1.0" encoding="UTF-8"?>
<svg id="Capa_2" data-name="Capa 2" xmlns="http://www.w3.org/2000/svg" viewBox="0 0 245.9 256.16">
  <defs>
    <style>
      .cls-1 {
        fill: #fff;
        stroke-width: 0px;
      }
    </style>
  </defs>
  <g id="Capa_1-2" data-name="Capa 1">
    <g>
      <path class="cls-1" d="m181.15,236.24c-4.24-1.06-10.93-2.43-17.41-4.46-5.61-1.76-9.63-.47-12.96,4.31-2.38,3.41-5.18,6.52-7.82,9.74-11.28,13.72-28.64,13.8-39.86.17-2.86-3.47-5.81-6.88-8.45-10.51-3.07-4.21-6.82-5.41-11.77-3.89-4.92,1.52-9.92,2.83-14.94,4.02-14.85,3.52-28.96-6.73-30.16-21.9-.41-5.15-.77-10.31-.84-15.47-.06-4.95-2.12-8.18-6.83-9.84-4.7-1.66-9.36-3.46-13.99-5.32-15.28-6.14-20.67-22.71-11.93-36.7,2.73-4.38,5.57-8.69,8.45-12.97,2.43-3.61,2.41-7.08-.02-10.68-2.88-4.28-5.73-8.59-8.45-12.97-8.73-14.03-3.32-30.55,11.98-36.69,4.17-1.67,8.3-3.49,12.59-4.79,5.8-1.75,8.39-5.31,8.27-11.39-.09-4.82.39-9.65.78-14.47,1.21-15.16,15.34-25.4,30.18-21.86,4.85,1.16,9.73,2.31,14.46,3.88,5.38,1.78,9.32.41,12.56-4.16,2.4-3.39,5.18-6.52,7.83-9.73,11.5-14,28.74-14.08,40.16-.18,2.86,3.48,5.8,6.89,8.46,10.51,2.97,4.06,6.63,5.16,11.37,3.77,4.79-1.41,9.62-2.64,14.46-3.87,15.42-3.91,29.66,6.18,30.89,21.92.38,4.82.84,9.65.77,14.47-.09,5.88,2.48,9.3,8.04,11.02,4.44,1.38,8.75,3.2,13.06,4.96,14.97,6.13,20.34,22.61,11.84,36.41-2.79,4.53-5.77,8.96-8.71,13.4-2.28,3.44-2.28,6.8,0,10.24,2.95,4.44,5.92,8.86,8.71,13.4,8.49,13.8,3.12,30.25-11.86,36.4-4.31,1.77-8.61,3.59-13.05,4.97-5.58,1.73-8.1,5.16-8.03,11.03.06,4.98-.4,9.99-.81,14.96-1.05,12.77-11.62,22.34-26.96,22.25Zm1.39-16.78c5.64.1,8.65-2.78,9.09-8.2.46-5.64.44-11.32.97-16.96.97-10.26,6.57-17.19,16.04-21.03,4.62-1.87,9.34-3.5,13.98-5.34,6.71-2.68,8.24-7.31,4.42-13.39-2.75-4.37-5.69-8.62-8.38-13.02-5.46-8.92-5.47-17.95,0-26.87,2.78-4.54,5.85-8.91,8.65-13.44,3.44-5.56,1.88-10.3-4.21-12.8-5.23-2.14-10.61-3.92-15.79-6.17-8.45-3.67-13.47-10.2-14.55-19.38-.64-5.45-.66-10.97-.99-16.45-.5-8.19-4.35-11.04-12.18-9.01-4.83,1.25-9.62,2.65-14.47,3.83-10.24,2.51-18.72-.53-25.48-8.46-3.35-3.93-6.45-8.06-9.76-12.02-4.45-5.33-9.37-5.33-13.81,0-3.3,3.97-6.41,8.1-9.76,12.03-6.76,7.93-15.24,10.98-25.48,8.46-5.17-1.27-10.27-2.82-15.44-4.05-6.78-1.61-10.61,1.21-11.14,8.22-.41,5.48-.4,10.99-.92,16.46-.98,10.26-6.58,17.2-16.03,21.04-4.77,1.94-9.67,3.59-14.45,5.51-6.09,2.45-7.67,7.23-4.23,12.79,2.8,4.53,5.87,8.89,8.65,13.43,5.46,8.92,5.46,17.95.01,26.87-2.77,4.54-5.84,8.91-8.65,13.44-3.45,5.57-1.89,10.33,4.2,12.8,5.24,2.13,10.62,3.91,15.8,6.16,8.45,3.67,13.48,10.2,14.54,19.38.66,5.78.63,11.64,1.07,17.45.54,7.01,4.35,9.84,11.13,8.24,5.18-1.22,10.27-2.79,15.44-4.05,10.23-2.51,18.72.5,25.48,8.45,3.45,4.06,6.64,8.34,10.09,12.4,4.09,4.82,9.03,4.82,13.15.02,2.93-3.41,5.77-6.9,8.49-10.48,7.76-10.24,17.69-13.46,29.99-9.71,5.08,1.55,10.28,2.74,14.53,3.85Z"/>
      <path class="cls-1" d="m168.33,90.93c-1.94,3.16-2.86,5.55-4.52,7.21-25.38,25.52-50.83,50.97-76.32,76.38-4.28,4.26-9.24,4.35-12.78.57-3.28-3.5-2.96-8.4,1.07-12.43,25.42-25.48,50.89-50.91,76.32-76.38,2.84-2.84,6.26-4.56,9.83-2.36,2.51,1.55,4.17,4.48,6.4,7.01Z"/>
      <path class="cls-1" d="m167.07,161.12c-.03,9.12-7.38,16.58-16.46,16.7-9.23.12-16.82-7.5-16.79-16.86.03-9.14,7.36-16.58,16.45-16.69,9.24-.11,16.83,7.5,16.8,16.85Z"/>
      <path class="cls-1" d="m89.73,83.09c9.03.28,16.35,7.94,16.18,16.97-.17,9.33-7.84,16.57-17.27,16.32-9.15-.25-16.31-7.76-16.14-16.91.18-9.33,7.9-16.66,17.23-16.38Z"/>
    </g>
  </g>
</svg>