<?xml version="1.0" encoding="UTF-8"?>
<svg id="Capa_2" data-name="Capa 2" xmlns="http://www.w3.org/2000/svg" viewBox="0 0 256.14 256.14">
  <defs>
    <style>
      .cls-1 {
        stroke-width: 0px;
      }
    </style>
  </defs>
  <g id="Capa_1-2" data-name="Capa 1">
    <g>
      <path class="cls-1" d="m60.88,129.83c-11.93,0-23.03,0-34.13,0-2.5,0-5,.04-7.5,0C7.41,129.61.04,122.16.03,110.24-.01,80.07,0,49.91.03,19.75.04,7.46,7.36.03,19.51.02c60.16-.03,120.32-.06,180.48.14,2.76,0,6.09,1.6,8.17,3.52,7.22,6.66,13.96,13.84,21,20.71,1.21,1.18,2.9,2.02,4.53,2.57,3.42,1.15,6.94,2.01,10.32,3.64,3.32-1.08,6.33-6.7,10.77-1.6,3.68,4.22-.98,6.76-3.26,10.25,5.31,3.23,4.58,8.52,4.56,13.68-.06,20.33.09,40.66-.16,60.99-.03,2.66-1.26,5.97-3.1,7.85-15.13,15.5-30.48,30.8-45.93,45.98-1.54,1.52-4.41,2.88-6.36,2.54-4.33-.74-4.68-5.47-.84-9.33,12.69-12.76,25.14-25.79,38.3-38.05,6.11-5.69,8.55-11.54,8.23-19.88-.65-16.97-.17-33.99-.23-50.99,0-1.81-.49-3.62-.75-5.43-.68-.38-1.36-.75-2.05-1.13-3.11,3.63-6.38,7.13-9.21,10.96-.75,1.02-.44,3.06-.18,4.55,1.17,6.73-1.93,13.25-7.94,16.35-5.87,3.02-12.87,1.91-17.5-2.79-4.63-4.7-5.65-11.69-2.55-17.53,3.15-5.95,9.63-8.79,16.46-7.79,1.89.28,4.34-.52,5.94-1.66,3.22-2.29,6.02-5.16,9-7.79-.22-.56-.43-1.12-.65-1.67-1.57-.35-3.14-1.01-4.71-1.02-20-.07-40-.12-59.99.07-2.01.02-4.5,1.16-5.95,2.6-41.68,41.51-83.27,83.12-124.85,124.72-5.56,5.56-5.5,9.07.23,14.8,20.84,20.87,41.7,41.73,62.57,62.57,5.68,5.67,9.19,5.69,14.81.08,15.1-15.07,30.17-30.16,45.25-45.24.94-.94,1.82-2.46,2.9-2.64,2.2-.36,5.36-.84,6.56.33,1.16,1.13.73,4.36.28,6.51-.26,1.24-1.94,2.18-3,3.24-14.73,14.73-29.46,29.46-44.19,44.19-10.39,10.38-19.92,10.44-30.21.16-20.63-20.61-41.25-41.24-61.86-61.87-9.91-9.92-9.96-19.65-.16-29.48,8.47-8.5,16.95-16.98,25.42-25.48.23-.23.38-.54,1.23-1.81Zm30.35-29.37c-11.99-2.82-16.75-7.96-16.31-16.72.35-7.02,5.92-13.36,12.85-13.65,3.31-.14,7.62.24,9.84,2.22,3.68,3.28,6.03,8.04,9.01,12.28.32-.31,1.54-1.42,2.7-2.57,17.09-17.08,34.23-34.12,51.21-51.3,2.68-2.71,5.44-3.83,9.24-3.78,14.16.18,28.33.08,42.49.06,1.38,0,2.76-.2,5.41-.4-5.43-5.22-9.83-9.77-14.61-13.88-1.68-1.44-4.28-2.56-6.46-2.57-58.82-.14-117.65-.12-176.47-.1-7.22,0-10.07,2.79-10.08,9.89-.03,29.99-.03,59.99,0,89.98,0,6.84,2.89,9.81,9.69,9.84,16.16.07,32.33.07,48.49-.05,1.66-.01,3.72-.59,4.89-1.67,5.97-5.53,11.7-11.31,18.1-17.58Zm133.21-35.35s.03-.04.05-.06c.13-.15.27-.3.31-.5.05-.26-.09-.53-.23-.75-1.51-2.34-4.69-4.52-7.45-2.88-1.37.81-2.19,2.48-1.96,4.06s1.5,2.96,3.07,3.28c1.21.24,2.48-.12,3.53-.75s1.89-1.5,2.7-2.4Zm-133.94,15.16c-.72-.13-1.46-.1-2.15.13-1.51.49-2.7,1.94-2.75,3.53-.04,1.15.49,2.27,1.24,3.15s1.73,1.53,2.71,2.13c.16.1.34.2.53.2.19,0,.36-.12.52-.22.82-.56,1.63-1.13,2.31-1.86s1.2-1.62,1.33-2.6c.3-2.3-1.62-4.08-3.74-4.46Z"/>
      <path class="cls-1" d="m109.86,138.57c-.06-4.2,3.28-6.79,6.81-5.06,12.67,6.21,25.26,12.59,37.66,19.31,1.5.81,2.76,4.58,2.11,6.1-.65,1.52-4.49,3.24-5.83,2.59-3.42-1.66-5.17-.34-7.15,1.93-1.2,1.38-2.5,2.68-3.88,3.87-1.93,1.66-2.99,3.22-1.45,5.89,1.6,2.78.6,5.81-2.25,6.47-1.96.45-5.66-.78-6.53-2.38-6.6-12.09-12.7-24.45-18.92-36.74-.36-.72-.45-1.58-.56-1.99Zm21.95,21.85c1.95-1.96,3.49-3.5,5.32-5.35-3.4-1.72-6.49-3.28-10.87-5.49,2.29,4.48,3.85,7.51,5.55,10.84Z"/>
      <path class="cls-1" d="m120.45,189.46c.05,5.89-7.42,16.96-13.21,18.71-1.61.48-4.59-.38-5.49-1.66-.93-1.32-.8-4.31.12-5.8,1.52-2.49,4.02-4.4,6.14-6.51,2.41-2.39,3.54-5.1.98-7.88-2.37-2.57-4.96-1.68-7.55.22-7.6,5.58-16.08,4.99-21.45-1.32-5.46-6.43-4.74-14.73,1.88-21.47,1.98-2.02,3.73-4.54,6.12-5.8,1.78-.94,5.68-1.09,6.41-.05,1.14,1.64,1.15,4.93.26,6.9-1.03,2.27-3.52,3.9-5.44,5.76-2.51,2.43-4.19,5.16-1.35,8.2,2.58,2.76,5.3,1.63,7.92-.51,4.99-4.08,10.63-4.75,16.37-2,5.41,2.59,8.1,7.21,8.3,13.23Z"/>
      <path class="cls-1" d="m192.85,110.99c1.71-2.25,3.02-5.15,5.27-6.53,1.75-1.08,5.24-1.18,6.94-.11,2.6,1.64,2.06,4.72-.05,6.95-3.08,3.27-6.25,6.48-9.54,9.53-2.46,2.27-5.19,2.14-7.57-.22-9.22-9.15-18.42-18.34-27.57-27.56-2.38-2.39-2.43-5.1-.14-7.55,3.07-3.28,6.28-6.45,9.54-9.54,2.25-2.13,5.31-2.62,6.93-.01,1.07,1.71.88,5.07-.12,6.97-1.15,2.2-3.81,3.6-5.86,5.39,2.86,2.53,5.17,4.58,7.47,6.62.18.71.36,1.42.55,2.13,1.65-2.26,3.09-4.72,5-6.74,2.26-2.39,5.51-2.87,7.28-.03,1.03,1.66.62,5.08-.45,6.96-1.23,2.16-3.91,3.5-5.85,5.11,2.97,2.85,5.19,4.98,7.41,7.12.26.51.51,1.02.77,1.53Z"/>
      <path class="cls-1" d="m165.9,137.15c3.57-3.93,5.46-6.94,8.16-8.65,1.73-1.1,5.23-1.21,6.93-.14,2.59,1.62,2.11,4.72.01,6.94-3.54,3.74-7.2,7.38-10.92,10.94-2.42,2.32-5.08,2.36-7.5-.05-9.31-9.26-18.6-18.54-27.85-27.87-2.19-2.21-2.46-4.83-.17-7.06,2.45-2.39,5.17-1.96,7.5.34,6.74,6.66,13.46,13.35,20.09,20.11,1.27,1.29,2.1,3.01,3.75,5.44Z"/>
      <path class="cls-1" d="m191.56,182.77c-.08.1-.17.19-.26.27-.96.94-2.02,1.78-3.16,2.5-.57.36-1.19.69-1.86.72-.85.04-1.65-.43-2.3-.98-.82-.69-1.5-1.53-2-2.47-.28-.52-.5-1.1-.47-1.69.04-.56.3-1.08.64-1.52.72-.95,1.79-1.64,2.96-1.9,2.59-.59,5.23,1.01,6.44,3.27.23.43.41.93.25,1.38-.05.15-.14.29-.25.41Z"/>
      <path class="cls-1" d="m52.29,98.6c-.07.03-.14.05-.22.07-1.08.28-2.21-.18-3.19-.72-.81-.44-1.61-.97-2.12-1.73-1.38-2.06-.17-4.81,1.05-6.97,9.2-16.35,18.4-32.71,27.59-49.06,1.14-2.02,2.31-4.08,4.07-5.59,1.42-1.22,4.4-2.68,6.29-1.65.83.45,1.1,2.04,1.22,2.9.18,1.24.08,2.52-.22,3.74-.55,2.27-1.72,4.34-2.87,6.37-8.03,14.12-16.05,28.24-24.08,42.36-1.66,2.91-3.32,5.84-5.39,8.48-.58.75-1.25,1.5-2.14,1.81Z"/>
      <path class="cls-1" d="m32.71,45.15c-.07-8.28,6.45-15.01,14.66-15.13,8.37-.13,15.36,6.79,15.27,15.11-.08,8.17-6.85,14.88-15.01,14.89-8.21.01-14.86-6.61-14.92-14.87Zm20.18.94c.04-.07.07-.15.1-.22,1.45-3.53-3.87-5.89-6.61-4.89-2.01.73-3.43,2.85-3.35,4.99.04,1.07.45,2.17,1.26,2.87.84.73,2.03.97,3.14.83s2.14-.63,3.09-1.22c.96-.6,1.88-1.34,2.38-2.35Z"/>
    </g>
  </g>
</svg>