<?xml version="1.0" encoding="UTF-8"?>
<svg id="Capa_2" data-name="Capa 2" xmlns="http://www.w3.org/2000/svg" viewBox="0 0 84.72 84.72">
  <defs>
    <style>
      .cls-1 {
        fill: #fff;
        stroke-width: 0px;
      }
    </style>
  </defs>
  <g id="Capa_1-2" data-name="Capa 1">
    <path class="cls-1" d="m20.14,42.94c-3.95,0-7.62,0-11.29,0-.83,0-1.65.01-2.48,0C2.45,42.87.01,40.41,0,36.46,0,26.49,0,16.51,0,6.53.01,2.47,2.43,0,6.45,0,26.35,0,46.25-.01,66.15.05c.91,0,2.01.53,2.7,1.16,2.39,2.2,4.62,4.58,6.95,6.85.4.39.96.67,1.5.85,1.13.38,2.3.66,3.41,1.2,1.1-.36,2.09-2.22,3.56-.53,1.22,1.4-.32,2.24-1.08,3.39,1.76,1.07,1.51,2.82,1.51,4.52-.02,6.72.03,13.45-.05,20.17-.01.88-.42,1.97-1.02,2.6-5,5.13-10.08,10.19-15.19,15.21-.51.5-1.46.95-2.1.84-1.43-.24-1.55-1.81-.28-3.08,4.2-4.22,8.32-8.53,12.67-12.58,2.02-1.88,2.83-3.82,2.72-6.58-.21-5.61-.06-11.24-.08-16.86,0-.6-.16-1.2-.25-1.79-.23-.12-.45-.25-.68-.37-1.03,1.2-2.11,2.36-3.05,3.62-.25.34-.14,1.01-.06,1.51.39,2.22-.64,4.38-2.63,5.41-1.94,1-4.26.63-5.79-.92-1.53-1.55-1.87-3.87-.84-5.8,1.04-1.97,3.19-2.91,5.44-2.58.62.09,1.44-.17,1.96-.55,1.06-.76,1.99-1.71,2.98-2.58-.07-.18-.14-.37-.21-.55-.52-.12-1.04-.33-1.56-.34-6.61-.02-13.23-.04-19.84.02-.67,0-1.49.38-1.97.86-13.79,13.73-27.54,27.49-41.3,41.25-1.84,1.84-1.82,3,.07,4.9,6.89,6.9,13.79,13.8,20.7,20.7,1.88,1.88,3.04,1.88,4.9.03,4.99-4.98,9.98-9.98,14.97-14.96.31-.31.6-.81.96-.87.73-.12,1.77-.28,2.17.11.38.37.24,1.44.09,2.15-.09.41-.64.72-.99,1.07-4.87,4.87-9.74,9.75-14.62,14.62-3.44,3.43-6.59,3.45-9.99.05-6.82-6.82-13.64-13.64-20.46-20.46-3.28-3.28-3.29-6.5-.05-9.75,2.8-2.81,5.61-5.62,8.41-8.43.08-.08.12-.18.41-.6Zm10.04-9.71c-3.97-.93-5.54-2.63-5.39-5.53.12-2.32,1.96-4.42,4.25-4.52,1.1-.05,2.52.08,3.25.73,1.22,1.09,2,2.66,2.98,4.06.11-.1.51-.47.89-.85,5.65-5.65,11.32-11.28,16.94-16.97.89-.9,1.8-1.27,3.06-1.25,4.68.06,9.37.03,14.05.02.46,0,.91-.06,1.79-.13-1.79-1.73-3.25-3.23-4.83-4.59-.56-.48-1.42-.85-2.14-.85-19.46-.05-38.91-.04-58.37-.03-2.39,0-3.33.92-3.33,3.27,0,9.92,0,19.84,0,29.76,0,2.26.96,3.24,3.21,3.25,5.35.02,10.69.02,16.04-.02.55,0,1.23-.19,1.62-.55,1.97-1.83,3.87-3.74,5.99-5.82Zm44.06-11.69s.01-.01.02-.02c.04-.05.09-.1.1-.16.02-.09-.03-.17-.08-.25-.5-.77-1.55-1.5-2.46-.95-.45.27-.72.82-.65,1.34s.5.98,1.01,1.08c.4.08.82-.04,1.17-.25s.62-.5.89-.79Z"/>
  </g>
</svg>